<svg width="221" height="70" viewBox="0 0 221 70" fill="none" xmlns="http://www.w3.org/2000/svg">
<path d="M87.6016 55.6641V49.9219C88.1172 50.3906 88.7266 50.8125 89.4297 51.1875C90.1484 51.5625 90.9062 51.8828 91.7031 52.1484C92.5 52.3984 93.2969 52.5938 94.0938 52.7344C94.8906 52.875 95.625 52.9453 96.2969 52.9453C98.6406 52.9453 100.383 52.5547 101.523 51.7734C102.68 50.9922 103.258 49.8594 103.258 48.375C103.258 47.5781 103.062 46.8906 102.672 46.3125C102.297 45.7188 101.766 45.1797 101.078 44.6953C100.391 44.2109 99.5781 43.75 98.6406 43.3125C97.7188 42.8594 96.7266 42.3906 95.6641 41.9062C94.5234 41.2969 93.4609 40.6797 92.4766 40.0547C91.4922 39.4297 90.6328 38.7422 89.8984 37.9922C89.1797 37.2266 88.6094 36.3672 88.1875 35.4141C87.7812 34.4609 87.5781 33.3438 87.5781 32.0625C87.5781 30.4844 87.9297 29.1172 88.6328 27.9609C89.3516 26.7891 90.2891 25.8281 91.4453 25.0781C92.6172 24.3125 93.9453 23.75 95.4297 23.3906C96.9141 23.0156 98.4297 22.8281 99.9766 22.8281C103.492 22.8281 106.055 23.2266 107.664 24.0234V29.5312C105.758 28.1562 103.305 27.4688 100.305 27.4688C99.4766 27.4688 98.6484 27.5469 97.8203 27.7031C97.0078 27.8594 96.2734 28.1172 95.6172 28.4766C94.9766 28.8359 94.4531 29.2969 94.0469 29.8594C93.6406 30.4219 93.4375 31.1016 93.4375 31.8984C93.4375 32.6484 93.5938 33.2969 93.9062 33.8438C94.2188 34.3906 94.6719 34.8906 95.2656 35.3438C95.875 35.7969 96.6094 36.2422 97.4688 36.6797C98.3438 37.1016 99.3516 37.5625 100.492 38.0625C101.664 38.6719 102.766 39.3125 103.797 39.9844C104.844 40.6562 105.758 41.3984 106.539 42.2109C107.336 43.0234 107.961 43.9297 108.414 44.9297C108.883 45.9141 109.117 47.0391 109.117 48.3047C109.117 50.0078 108.773 51.4453 108.086 52.6172C107.398 53.7891 106.469 54.7422 105.297 55.4766C104.141 56.2109 102.805 56.7422 101.289 57.0703C99.7734 57.3984 98.1719 57.5625 96.4844 57.5625C95.9219 57.5625 95.2266 57.5156 94.3984 57.4219C93.5859 57.3438 92.75 57.2188 91.8906 57.0469C91.0312 56.8906 90.2188 56.6953 89.4531 56.4609C88.6875 56.2266 88.0703 55.9609 87.6016 55.6641ZM117.438 27.9609C116.547 27.9609 115.781 27.6719 115.141 27.0938C114.516 26.5156 114.203 25.7812 114.203 24.8906C114.203 24 114.516 23.2578 115.141 22.6641C115.781 22.0703 116.547 21.7734 117.438 21.7734C118.359 21.7734 119.141 22.0703 119.781 22.6641C120.422 23.2578 120.742 24 120.742 24.8906C120.742 25.7344 120.422 26.4609 119.781 27.0703C119.141 27.6641 118.359 27.9609 117.438 27.9609ZM120.133 57H114.695V33H120.133V57ZM149.102 55.0781C149.102 63.8906 144.672 68.2969 135.812 68.2969C132.688 68.2969 129.961 67.7734 127.633 66.7266V61.7578C130.258 63.2578 132.75 64.0078 135.109 64.0078C140.812 64.0078 143.664 61.2031 143.664 55.5938V52.9688H143.57C141.773 56.0312 139.07 57.5625 135.461 57.5625C132.539 57.5625 130.18 56.5 128.383 54.375C126.602 52.2344 125.711 49.3672 125.711 45.7734C125.711 41.6953 126.672 38.4531 128.594 36.0469C130.516 33.6406 133.156 32.4375 136.516 32.4375C139.688 32.4375 142.039 33.7344 143.57 36.3281H143.664V33H149.102V55.0781ZM143.711 46.0078V42.8906C143.711 41.2031 143.148 39.7656 142.023 38.5781C140.914 37.375 139.523 36.7734 137.852 36.7734C135.789 36.7734 134.172 37.5391 133 39.0703C131.844 40.5859 131.266 42.7109 131.266 45.4453C131.266 47.8047 131.82 49.6953 132.93 51.1172C134.055 52.5234 135.539 53.2266 137.383 53.2266C139.258 53.2266 140.781 52.5547 141.953 51.2109C143.125 49.8516 143.711 48.1172 143.711 46.0078ZM192.062 57H186.625V43.9219C186.625 41.4062 186.266 39.5859 185.547 38.4609C184.844 37.3359 183.648 36.7734 181.961 36.7734C180.539 36.7734 179.328 37.4844 178.328 38.9062C177.344 40.3281 176.852 42.0312 176.852 44.0156V57H171.391V43.4766C171.391 39.0078 169.812 36.7734 166.656 36.7734C165.188 36.7734 163.977 37.4453 163.023 38.7891C162.086 40.1328 161.617 41.875 161.617 44.0156V57H156.18V33H161.617V36.7969H161.711C163.445 33.8906 165.969 32.4375 169.281 32.4375C170.938 32.4375 172.383 32.8984 173.617 33.8203C174.867 34.7266 175.719 35.9219 176.172 37.4062C177.953 34.0938 180.609 32.4375 184.141 32.4375C189.422 32.4375 192.062 35.6953 192.062 42.2109V57ZM217.117 57H211.844V53.25H211.75C210.094 56.125 207.664 57.5625 204.461 57.5625C202.102 57.5625 200.25 56.9219 198.906 55.6406C197.578 54.3594 196.914 52.6641 196.914 50.5547C196.914 46.0234 199.523 43.3828 204.742 42.6328L211.867 41.625C211.867 38.2031 210.242 36.4922 206.992 36.4922C204.133 36.4922 201.555 37.4766 199.258 39.4453V34.6875C201.789 33.1875 204.711 32.4375 208.023 32.4375C214.086 32.4375 217.117 35.4219 217.117 41.3906V57ZM211.867 45.2109L206.828 45.9141C205.266 46.1172 204.086 46.5 203.289 47.0625C202.508 47.6094 202.117 48.5781 202.117 49.9688C202.117 50.9844 202.477 51.8203 203.195 52.4766C203.93 53.1172 204.906 53.4375 206.125 53.4375C207.781 53.4375 209.148 52.8594 210.227 51.7031C211.32 50.5312 211.867 49.0625 211.867 47.2969V45.2109Z" fill="white"/>
<rect x="1.5" y="1.5" width="67" height="67" rx="3.5" stroke="white" stroke-width="3"/>
<path d="M34.4661 35.7967L31.375 38.912C30.8431 39.448 30.8465 40.3137 31.3825 40.8455C31.6491 41.1101 31.9973 41.2422 32.3455 41.2422C32.6971 41.2422 33.0488 41.1073 33.316 40.838L37.3492 36.7732C37.8728 36.2455 37.8788 35.396 37.3627 34.861L23.7349 20.7344H43.1463C44.654 20.7344 45.8807 21.961 45.8807 23.4688C45.8807 24.2238 46.4927 24.8359 47.2478 24.8359C48.0029 24.8359 48.615 24.2238 48.615 23.4688C48.615 20.4533 46.1617 18 43.1463 18H23.7349C22.6375 18 21.6501 18.6523 21.2197 19.6619C20.7892 20.6714 21.0021 21.8354 21.7645 22.6301L34.4661 35.7967Z" fill="white"/>
<path d="M47.2478 46.1641C46.4927 46.1641 45.8806 46.7761 45.8806 47.5312C45.8806 49.039 44.654 50.2656 43.1463 50.2656H23.8717C23.8729 50.2644 23.8742 50.2629 23.8758 50.2614L28.3276 45.758C28.8585 45.221 28.8534 44.3554 28.3164 43.8245C27.7795 43.2937 26.9138 43.2988 26.383 43.8357L21.9353 48.335C21.1523 49.1203 20.921 50.2896 21.3462 51.3139C21.7714 52.3381 22.7627 53 23.8716 53H43.1463C46.1617 53 48.615 50.5467 48.615 47.5312C48.615 46.7761 48.0029 46.1641 47.2478 46.1641Z" fill="white"/>
</svg>
